<?xml version="1.0" encoding="utf-8"?>
<!-- Generator: Adobe Illustrator 22.0.0, SVG Export Plug-In . SVG Version: 6.00 Build 0)  -->
<svg version="1.1" id="Layer_1" xmlns="http://www.w3.org/2000/svg" xmlns:xlink="http://www.w3.org/1999/xlink" x="0px" y="0px"
	 viewBox="0 0 640 210.9" style="enable-background:new 0 0 640 210.9;" xml:space="preserve">
<style type="text/css">
	.st0{fill:#EDEDED;}
</style>
<g>
	<path class="st0" d="M23,14.4h58v178.7H23V14.4z"/>
	<path class="st0" d="M105.1,14.4h58v178.7h-58V14.4z"/>
	<path class="st0" d="M187.2,132.7V65.1h58v67.6c0,9.7,4.8,14.5,9.7,14.5s9.7-4.8,9.7-14.5V65.1h58v128h-55.5l-4.8-14.5
		c0,0-9.7,18.1-31.4,18.1C206.5,196.7,187.2,177.4,187.2,132.7z"/>
	<path class="st0" d="M421.4,147.2c12.1,0,21.7-9.7,21.7-9.7l24.1,38.6c0,0-19.3,20.5-54.3,20.5c-41,0-71.2-30.2-71.2-67.6
		c0-37.4,30.2-67.6,71.2-67.6c35,0,54.3,20.5,54.3,20.5l-24.1,38.6c0,0-9.7-9.7-21.7-9.7s-19.3,7.2-19.3,18.1
		C402.1,140,409.3,147.2,421.4,147.2z"/>
	<path class="st0" d="M481.8,132.7V65.1h58v67.6c0,9.7,4.8,14.5,9.7,14.5c4.8,0,9.7-4.8,9.7-14.5V65.1h58v128h-55.5l-4.8-14.5
		c0,0-9.7,18.1-31.4,18.1C501.1,196.7,481.8,177.4,481.8,132.7z"/>
</g>
</svg>
